<mxfile host="app.diagrams.net" modified="2023-05-15T00:55:28.003Z" agent="Mozilla/5.0 (Windows NT 10.0; Win64; x64) AppleWebKit/537.36 (KHTML, like Gecko) Chrome/113.0.0.0 Safari/537.36" version="21.3.0" etag="8OzrSkAHSiZr7NFBUBlK" type="github">
  <diagram name="Page-1" id="AUTsyAukdBGNu48wZVGs">
    <mxGraphModel>
      <root>
        <mxCell id="0" />
        <mxCell id="1" parent="0" />
      </root>
    </mxGraphModel>
  </diagram>
</mxfile>
